<svg xmlns="http://www.w3.org/2000/svg" viewBox="0 0 480 209.81"><defs><style>.cls-1{fill:#1d1d1b;}.cls-2{fill:#3e87c8;}.cls-3{fill:#f9b233;}.cls-4{fill:#e04125;}.cls-5{fill:#fff;}.cls-6{fill:none;}</style></defs><g id="Layer_2" data-name="Layer 2"><g id="Layer_1-2" data-name="Layer 1"><path class="cls-1" d="M58.48,179.11c0-9,7-15.6,16.5-15.6s16.49,6.59,16.49,15.6S84.45,194.7,75,194.7,58.48,188.06,58.48,179.11Zm25.93,0c0-5.74-4-9.65-9.43-9.65s-9.43,3.91-9.43,9.65,4,9.64,9.43,9.64S84.41,184.84,84.41,179.11Z"/><path class="cls-1" d="M121.51,182.6c0,7.27-5.05,11.92-11.55,11.92a9,9,0,0,1-7-2.8v10.82H96.25V171h6.42v2.66a9,9,0,0,1,7.29-3C116.46,170.66,121.51,175.32,121.51,182.6Zm-6.81,0c0-4-2.54-6.43-5.9-6.43s-5.91,2.42-5.91,6.43,2.54,6.41,5.91,6.41S114.7,186.6,114.7,182.6Z"/><path class="cls-1" d="M148.56,184.49H131c.65,2.88,3.09,4.65,6.63,4.65a7.84,7.84,0,0,0,5.81-2.24l3.58,3.87c-2.16,2.46-5.38,3.75-9.56,3.75-8,0-13.23-5-13.23-11.92s5.3-11.94,12.37-11.94c6.8,0,12.06,4.57,12.06,12C148.69,183.2,148.6,183.94,148.56,184.49Zm-17.63-3.92h11.42a5.79,5.79,0,0,0-11.42,0Z"/><path class="cls-1" d="M176.87,180.92v13.26h-6.74V181.94c0-3.74-1.72-5.47-4.69-5.47-3.22,0-5.55,2-5.55,6.25v11.46h-6.72V171h6.41v2.71a10.19,10.19,0,0,1,7.68-3.06C172.72,170.66,176.87,173.86,176.87,180.92Z"/><path class="cls-1" d="M181,191.21l2.37-5.25a17.76,17.76,0,0,0,10,3.13c4.13,0,5.81-1.37,5.81-3.22,0-5.64-17.52-1.76-17.52-13,0-5.12,4.13-9.39,12.7-9.39a20.08,20.08,0,0,1,10.47,2.68l-2.16,5.3a16.93,16.93,0,0,0-8.35-2.38c-4.14,0-5.73,1.55-5.73,3.44,0,5.56,17.52,1.73,17.52,12.8,0,5.05-4.17,9.35-12.79,9.35C188.53,194.7,183.71,193.29,181,191.21Z"/><path class="cls-1" d="M233,184.49H215.45c.65,2.88,3.11,4.65,6.64,4.65a7.88,7.88,0,0,0,5.83-2.24l3.57,3.87c-2.16,2.46-5.39,3.75-9.57,3.75-8,0-13.22-5-13.22-11.92s5.3-11.94,12.36-11.94c6.81,0,12.06,4.57,12.06,12C233.12,183.2,233,183.94,233,184.49Zm-17.62-3.92H226.8a5.8,5.8,0,0,0-11.43,0Z"/><path class="cls-1" d="M261.3,180.92v13.26h-6.73V181.94c0-3.74-1.71-5.47-4.69-5.47-3.23,0-5.56,2-5.56,6.25v11.46H237.6V171H244v2.71a10.17,10.17,0,0,1,7.67-3.06C257.16,170.66,261.3,173.86,261.3,180.92Z"/><path class="cls-1" d="M265.14,192l2.24-4.82a15.76,15.76,0,0,0,8.05,2.25c3.1,0,4.27-.82,4.27-2.12,0-3.79-14,.08-14-9.16,0-4.4,4-7.51,10.73-7.51a19.1,19.1,0,0,1,8.92,2l-2.24,4.78a13.27,13.27,0,0,0-6.68-1.73c-3,0-4.31,1-4.31,2.16,0,4,14,.12,14,9.25,0,4.32-4,7.37-10.94,7.37A19.9,19.9,0,0,1,265.14,192Z"/><path class="cls-1" d="M312.82,184.49H295.28c.65,2.88,3.12,4.65,6.65,4.65a7.85,7.85,0,0,0,5.8-2.24l3.58,3.87c-2.15,2.46-5.39,3.75-9.56,3.75-8,0-13.23-5-13.23-11.92s5.3-11.94,12.37-11.94c6.8,0,12.06,4.57,12.06,12C313,183.2,312.86,183.94,312.82,184.49Zm-17.61-3.92h11.41a5.78,5.78,0,0,0-11.41,0Z"/><path class="cls-1" d="M330.1,164h7V188.5H352.2v5.68H330.1Z"/><path class="cls-1" d="M376.14,181v13.22h-6.28V191.3c-1.25,2.1-3.66,3.22-7.06,3.22-5.43,0-8.67-3-8.67-7s2.9-6.93,9.95-6.93h5.34c0-2.89-1.72-4.57-5.34-4.57a11.07,11.07,0,0,0-6.67,2.17L355,173.46a17.78,17.78,0,0,1,10-2.8C372.06,170.66,376.14,173.94,376.14,181Zm-6.72,5.9v-2.37h-4.6c-3.14,0-4.14,1.16-4.14,2.71s1.43,2.8,3.79,2.8A5,5,0,0,0,369.42,186.86Z"/><path class="cls-1" d="M407.46,182.6c0,7.27-5,11.92-11.54,11.92a9.06,9.06,0,0,1-7.28-3v2.66h-6.41v-32h6.71v11.24a9,9,0,0,1,7-2.8C402.43,170.66,407.46,175.32,407.46,182.6Zm-6.8,0c0-4-2.54-6.43-5.9-6.43s-5.91,2.42-5.91,6.43,2.55,6.41,5.91,6.41S400.66,186.6,400.66,182.6Z"/><path class="cls-1" d="M409.71,192,412,187.2a15.84,15.84,0,0,0,8.05,2.25c3.1,0,4.27-.82,4.27-2.12,0-3.79-14,.08-14-9.16,0-4.4,4-7.51,10.72-7.51a19,19,0,0,1,8.91,2l-2.23,4.78a13.25,13.25,0,0,0-6.68-1.73c-3,0-4.31,1-4.31,2.16,0,4,14,.12,14,9.25,0,4.32-4,7.37-10.93,7.37C415.83,194.52,411.87,193.44,409.71,192Z"/><path class="cls-2" d="M75.37,149.21h0a74.6,74.6,0,1,1,73.84-75.37v.65a74.26,74.26,0,0,1-73.76,74.72h-.06"/><polygon class="cls-3" points="480 149.21 332.24 149.21 332.24 0.01 480 149.21"/><rect class="cls-4" x="166.8" y="0.09" width="147.74" height="149.13"/><polygon class="cls-5" points="205.62 101.86 268.59 38.9 275.71 46.03 212.75 109 205.62 101.86"/><rect class="cls-6" width="480" height="209.81"/></g></g></svg>